<?xml version="1.0" encoding="UTF-8"?>
<!DOCTYPE svg PUBLIC "-//W3C//DTD SVG 1.1//EN" "http://www.w3.org/Graphics/SVG/1.1/DTD/svg11.dtd">
<!-- Creator: CorelDRAW X8 -->
<svg xmlns="http://www.w3.org/2000/svg" xml:space="preserve" width="210mm" height="297mm" version="1.1" style="shape-rendering:geometricPrecision; text-rendering:geometricPrecision; image-rendering:optimizeQuality; fill-rule:evenodd; clip-rule:evenodd"
viewBox="0 0 21000 29700"
 xmlns:xlink="http://www.w3.org/1999/xlink">
 <defs>
  <style type="text/css">
   <![CDATA[
    .str2 {stroke:#007036;stroke-width:20}
    .str0 {stroke:#FEFEFE;stroke-width:7.62}
    .str1 {stroke:#007036;stroke-width:7.62}
    .fil1 {fill:#007036}
    .fil0 {fill:#007036;fill-rule:nonzero}
   ]]>
  </style>
 </defs>
 <g id="Capa_x0020_1">
  <metadata id="CorelCorpID_0Corel-Layer"/>
  <path class="fil0 str0" d="M7749 7325c80,0 160,-2 239,-7 79,-4 157,-2 233,7 245,26 444,112 597,259 153,146 248,341 285,584 24,152 22,299 -6,440 -29,141 -79,269 -152,383 -72,114 -167,210 -283,289 -116,80 -250,136 -402,168 -117,24 -206,51 -267,80 -61,29 -104,65 -130,107 -27,43 -41,95 -43,157 -2,62 -4,138 -6,229 -2,61 -1,120 3,178 4,57 15,113 31,166 16,53 41,103 73,151 33,48 77,92 134,134 30,24 50,50 60,79 10,30 10,58 2,85 -9,27 -26,51 -51,72 -25,20 -57,33 -96,37 -93,11 -187,18 -280,21 -93,4 -188,6 -283,9 -26,0 -54,0 -82,1 -28,1 -55,-1 -81,-8 -26,-6 -50,-17 -72,-33 -22,-15 -39,-39 -52,-71 -11,-28 -15,-53 -11,-75 3,-22 11,-42 22,-62 12,-19 27,-38 44,-55 18,-18 33,-36 46,-56 35,-47 56,-98 65,-151 9,-53 13,-108 13,-165l0 -2175c2,-91 -12,-175 -42,-251 -31,-76 -76,-148 -137,-218 -69,-82 -88,-152 -57,-210 32,-57 103,-89 213,-96 79,-4 157,-5 236,-3 80,2 158,3 237,3l0 -3zm373 -117c-117,0 -233,0 -348,1 -114,1 -230,0 -347,-4 -30,-2 -57,-11 -79,-26 -23,-15 -40,-32 -51,-53 -11,-21 -15,-44 -12,-69 3,-25 14,-47 34,-67 38,-38 67,-78 88,-121 21,-43 36,-86 45,-130 9,-44 14,-88 15,-134 1,-46 1,-93 1,-140 0,-291 0,-581 0,-871 0,-289 1,-579 3,-870 0,-55 -1,-110 -3,-162 -2,-53 -8,-105 -19,-156 -11,-50 -28,-100 -51,-149 -23,-49 -55,-96 -97,-142 -22,-24 -34,-50 -37,-79 -3,-29 2,-55 15,-79 13,-24 33,-44 60,-60 26,-16 58,-23 94,-23 232,-4 465,-7 697,-8 231,-1 464,1 697,5 63,0 110,17 140,52 30,35 44,83 42,145 -2,71 -7,143 -14,214 -7,72 -15,144 -25,215 -2,20 -17,42 -43,65 -27,22 -52,34 -74,34 -11,0 -24,-4 -38,-11 -14,-7 -28,-15 -41,-26 -13,-11 -24,-23 -34,-35 -10,-12 -17,-23 -21,-33 -20,-53 -46,-97 -79,-129 -33,-33 -70,-58 -110,-74 -41,-15 -85,-25 -132,-29 -46,-4 -95,-6 -144,-6 -60,0 -109,4 -148,13 -39,9 -70,25 -93,49 -23,24 -39,56 -49,96 -10,40 -16,91 -18,155 -4,66 -5,131 -4,197 1,66 4,130 10,194 6,70 32,125 79,166 47,41 100,61 160,61 52,0 96,-13 133,-39 36,-26 69,-60 97,-101 22,-28 42,-56 62,-82 20,-27 47,-41 81,-41 28,0 51,6 70,18 19,12 34,28 45,46 11,19 18,41 22,65 4,24 6,47 6,71 -2,116 -1,232 2,348 3,116 -11,231 -41,345 -8,28 -21,53 -40,76 -19,23 -45,32 -79,28 -20,-4 -40,-11 -60,-21 -20,-10 -34,-23 -44,-38 -32,-50 -64,-98 -96,-144 -32,-45 -79,-79 -140,-101 -34,-10 -63,-15 -87,-15 -46,0 -84,13 -116,39 -32,26 -49,64 -51,116 -4,137 -6,275 -7,414 -1,138 1,276 7,413 4,80 27,137 69,173 41,36 104,59 188,69 65,6 129,8 189,6 61,-2 119,-13 173,-32 55,-19 106,-47 153,-85 46,-38 88,-89 124,-155 13,-24 34,-50 62,-78 28,-27 57,-41 87,-41 24,0 47,6 68,19 22,13 37,30 45,52 32,104 38,204 18,300 -20,97 -51,193 -92,288 -20,44 -51,73 -91,88 -41,15 -85,24 -130,26 -118,2 -234,2 -348,1 -115,-1 -230,-1 -348,-1l0 -3zm2518 -1156c-7,61 -13,112 -18,153 -5,41 -10,80 -15,117 -11,91 -5,173 18,246 23,73 80,134 171,184 54,31 80,73 78,127 -2,54 -25,103 -68,147 -46,47 -95,90 -148,127 -53,37 -111,55 -174,55 -27,0 -53,-3 -79,-10 -58,-15 -118,-23 -179,-23 -54,0 -107,5 -159,15 -52,10 -106,20 -160,31 -52,13 -103,20 -153,20 -76,0 -145,-17 -208,-49 -63,-33 -116,-87 -160,-163 -58,-100 -89,-201 -93,-303 -3,-102 26,-205 87,-309 39,-70 87,-129 145,-179 57,-50 121,-94 190,-131 41,-21 83,-40 125,-57 43,-16 85,-35 126,-57 97,-50 159,-111 184,-185 25,-74 18,-165 -21,-274 -7,-17 -19,-31 -38,-42 -18,-11 -38,-16 -60,-16 -24,0 -42,6 -55,19 -44,44 -85,89 -124,135 -39,47 -82,90 -127,129 -28,26 -63,39 -104,39 -66,0 -116,-22 -152,-67 -36,-44 -56,-98 -60,-161 -2,-41 5,-79 21,-112 16,-34 38,-66 64,-96 89,-100 187,-178 296,-235 108,-56 230,-84 365,-84 58,0 113,8 164,24 51,16 96,42 135,78 39,36 72,83 100,142 27,58 47,129 60,211 4,37 9,75 14,114 6,40 10,77 12,114 2,63 3,123 1,179 -1,57 -1,106 -1,147zm-482 485c-2,-43 -8,-79 -16,-107 -9,-28 -32,-47 -69,-56 -30,-8 -60,-7 -89,5 -30,12 -53,30 -70,54 -18,24 -33,49 -46,77 -13,27 -22,54 -26,83 -4,39 0,74 13,107 13,33 41,58 85,75 41,15 82,10 123,-15 42,-25 69,-62 82,-112 4,-22 7,-43 8,-64 1,-20 3,-36 5,-47zm1418 704c-24,0 -46,0 -67,1 -21,1 -43,1 -67,-1 -175,-18 -296,-68 -361,-150 -65,-83 -83,-215 -52,-397 4,-20 13,-40 27,-61 15,-20 30,-34 48,-40 17,-7 38,-8 62,-4 23,5 43,12 58,23 26,20 51,42 75,67 24,25 47,50 70,75 23,25 48,48 75,68 27,21 57,38 90,51 32,13 62,19 91,19 45,0 84,-15 117,-45 33,-31 51,-70 55,-118 5,-47 -11,-90 -45,-127 -42,-43 -85,-84 -132,-122 -47,-38 -93,-76 -139,-115 -45,-39 -92,-77 -141,-113 -49,-36 -93,-76 -132,-122 -48,-56 -85,-118 -111,-185 -26,-68 -41,-136 -44,-206 -3,-69 5,-139 23,-208 18,-69 48,-136 90,-199 58,-91 135,-161 231,-211 95,-50 198,-75 309,-75 61,0 118,7 173,23 58,15 111,41 158,79 46,38 83,83 110,136 28,52 44,108 51,169 6,61 0,121 -20,182 -6,22 -22,39 -47,52 -25,13 -51,20 -80,20 -28,0 -51,-8 -68,-23 -41,-32 -80,-67 -116,-104 -35,-37 -75,-71 -119,-101 -19,-17 -44,-26 -74,-26 -31,0 -62,11 -95,32 -37,29 -56,61 -57,98 -1,37 8,72 28,104 17,31 40,59 68,85 28,26 58,51 88,75 48,37 97,71 148,102 51,32 100,67 145,106 115,100 189,213 222,337 32,125 32,259 0,402 -35,150 -107,262 -217,336 -110,74 -252,111 -428,111zm1076 -2195l133 0c89,0 158,2 206,6 47,5 79,18 96,39 16,22 19,56 8,101 -11,46 -30,111 -56,196 -10,37 -17,74 -21,110 -3,37 1,74 12,111 6,22 12,44 18,67 5,23 13,44 24,63 20,39 34,81 42,124 9,44 20,86 33,127 13,41 31,80 55,116 24,36 60,65 108,89 32,-34 58,-72 78,-112 19,-40 36,-81 49,-124 13,-42 24,-86 32,-130 9,-45 20,-88 33,-132 19,-69 26,-136 19,-200 -6,-64 -24,-130 -52,-197 -30,-74 -30,-131 0,-171 31,-40 87,-63 170,-67 52,-4 105,-5 159,-3 54,2 108,5 160,10 76,6 128,34 156,84 28,50 23,107 -16,170 -78,126 -140,256 -184,392 -45,136 -92,272 -142,409 -113,299 -225,598 -335,895 -111,298 -225,596 -342,896 -28,69 -59,139 -91,208 -33,70 -70,136 -111,199 -33,54 -73,94 -121,120 -47,26 -96,39 -148,39 0,150 -1,298 -2,444 -1,153 0,308 2,464 0,22 6,42 18,61 12,18 31,27 57,27 13,0 26,-3 40,-9 15,-7 27,-16 38,-26 50,-44 81,-89 93,-137 12,-48 4,-107 -25,-176 -30,-76 -32,-135 -6,-176 26,-41 75,-64 146,-68 48,-5 95,-8 142,-10 47,-2 94,-3 142,-3 56,0 111,2 166,6 54,5 108,14 163,30 30,8 55,23 76,43 21,21 34,47 41,77 6,30 4,59 -8,86 -12,27 -30,50 -54,67 -37,24 -76,45 -116,64 -40,18 -80,38 -119,60 -52,30 -100,63 -145,98 -44,34 -85,77 -122,126 -28,37 -47,77 -57,119 -9,43 -4,86 15,129 35,78 70,156 104,233 35,77 75,151 119,221 45,71 96,136 153,197 58,61 126,114 204,160 37,24 71,50 102,80 32,29 43,71 34,125 -6,43 -30,78 -71,104 -41,26 -97,44 -166,52 -113,15 -214,5 -303,-31 -89,-35 -162,-105 -218,-210 -39,-71 -78,-142 -116,-213 -38,-71 -79,-141 -122,-210 -15,-24 -30,-51 -46,-81 -15,-31 -38,-46 -68,-46 -6,0 -13,1 -20,3 -6,2 -14,6 -22,10 -35,17 -51,46 -49,86 2,40 3,79 3,116 0,35 6,65 18,91 12,26 27,49 44,70 17,21 37,40 60,59 23,18 45,37 67,57 56,50 78,102 65,158 -13,55 -53,90 -120,105 -59,11 -118,20 -176,27 -59,6 -119,9 -179,9 -85,0 -172,-6 -261,-19 -56,-9 -97,-37 -122,-85 -25,-48 -22,-98 8,-150 61,-102 96,-206 106,-314 10,-107 15,-217 15,-327l0 -1635c0,-56 -1,-112 -2,-166 -1,-54 -6,-107 -16,-160 -10,-52 -26,-103 -49,-153 -23,-50 -55,-97 -96,-143 -33,-37 -45,-78 -36,-122 9,-45 33,-82 72,-112 30,-22 60,-47 91,-75 30,-28 61,-55 91,-78 30,-24 62,-45 96,-62 34,-18 68,-26 103,-26 24,0 46,3 68,9 52,18 88,44 108,79 19,34 30,74 34,118 3,45 2,91 -2,139 -4,48 -5,92 -3,133 2,46 3,91 4,136 22,-17 42,-36 60,-57 47,-57 87,-121 117,-192 33,-76 65,-153 98,-230 32,-77 64,-155 94,-233 37,-89 37,-178 0,-267 -91,-228 -180,-454 -267,-679 -87,-224 -177,-450 -270,-675 -24,-57 -56,-109 -95,-157 -39,-47 -75,-96 -107,-146 -13,-20 -20,-41 -20,-65 0,-24 5,-46 13,-67 9,-21 22,-39 38,-55 16,-17 36,-27 60,-31 67,-11 131,-19 191,-23 59,-5 101,-9 125,-13zm-4832 3376l-13 0c5,87 8,174 10,261 2,87 9,172 19,257 7,54 29,94 67,119 38,25 84,38 139,41 95,2 183,-26 263,-85 46,-35 85,-82 118,-142 32,-59 59,-126 79,-198 21,-73 34,-150 40,-232 5,-81 4,-159 -4,-234 -7,-75 -23,-144 -47,-208 -24,-64 -55,-117 -94,-158 -39,-39 -81,-68 -126,-85 -44,-17 -91,-26 -141,-26 -107,0 -184,24 -232,73 -47,49 -73,129 -78,240 -2,63 -3,125 -1,188 1,63 1,126 1,189zm2423 1345c-6,61 -12,112 -18,153 -5,42 -10,81 -14,117 -11,92 -5,174 17,246 23,73 80,134 171,184 55,31 81,73 79,127 -3,55 -25,103 -69,147 -45,48 -95,90 -148,127 -53,37 -111,55 -174,55 -26,0 -52,-3 -78,-10 -59,-15 -119,-22 -179,-22 -55,0 -108,5 -160,14 -52,10 -105,20 -160,31 -52,13 -103,20 -153,20 -76,0 -145,-16 -208,-49 -63,-33 -116,-87 -160,-163 -58,-100 -89,-201 -92,-303 -4,-102 25,-205 86,-309 39,-70 87,-129 145,-179 57,-50 121,-94 190,-130 42,-22 83,-41 126,-57 42,-17 84,-36 125,-57 98,-50 159,-112 184,-186 25,-74 18,-165 -21,-274 -7,-17 -19,-31 -38,-42 -18,-11 -38,-16 -60,-16 -24,0 -42,6 -55,19 -44,44 -85,89 -124,136 -39,46 -81,89 -127,128 -28,26 -63,39 -104,39 -65,0 -116,-22 -152,-67 -35,-44 -55,-98 -60,-161 -2,-41 5,-78 21,-112 17,-34 38,-66 64,-96 89,-100 188,-178 296,-235 109,-56 230,-84 365,-84 59,0 113,8 164,24 51,16 96,42 136,78 39,36 72,83 99,142 27,59 47,129 60,212 4,37 9,75 15,114 5,39 9,77 11,114 2,63 3,122 2,179 -1,56 -2,105 -2,146zm-482 485c-2,-43 -7,-79 -16,-107 -9,-28 -32,-47 -68,-55 -31,-9 -61,-7 -90,4 -29,12 -53,30 -70,54 -17,24 -33,50 -46,77 -13,27 -21,55 -26,83 -4,39 0,75 13,107 13,33 42,58 85,75 41,15 82,10 124,-15 41,-24 68,-62 81,-112 4,-22 7,-43 8,-63 1,-21 3,-37 5,-48zm700 -348c5,-135 28,-270 69,-407 41,-137 101,-260 179,-370 78,-109 175,-198 290,-267 115,-68 248,-102 400,-102 63,0 125,7 184,23 60,15 116,38 168,68 80,46 133,101 160,168 26,66 22,137 -10,213 -48,113 -116,169 -205,169 -52,0 -105,-15 -157,-45 -13,-7 -25,-15 -37,-25 -12,-10 -25,-19 -38,-27 -89,-50 -162,-75 -221,-75 -52,0 -96,19 -132,57 -36,38 -67,96 -93,174 -50,147 -66,291 -49,430 18,139 60,275 127,410 37,76 82,132 134,168 52,36 113,53 182,53 37,0 83,-5 137,-16 22,-4 43,-11 64,-21 20,-10 41,-19 63,-28 22,-6 43,-13 64,-21 20,-7 41,-11 63,-11 22,0 42,5 60,16 19,11 36,32 51,62 19,41 19,78 0,111 -20,32 -41,64 -65,94 -70,83 -154,146 -254,189 -100,43 -205,65 -316,65 -133,0 -260,-32 -381,-96 -122,-64 -217,-163 -287,-298 -54,-104 -94,-211 -119,-321 -25,-109 -35,-223 -31,-340z"/>
  <path class="fil0 str1" d="M5544 11469l57 -42c-1,11 -1,22 1,35 2,12 6,25 10,37 4,12 9,24 15,36 5,11 11,21 18,30 22,29 43,48 65,54 22,7 43,2 64,-13 11,-8 19,-18 23,-29 5,-10 8,-23 8,-36 1,-14 -1,-29 -3,-45 -2,-17 -5,-34 -8,-53 -3,-20 -6,-38 -8,-56 -1,-18 -1,-35 1,-51 3,-16 7,-30 15,-44 8,-14 19,-26 34,-37 19,-14 38,-22 58,-24 20,-2 40,0 59,7 18,7 36,17 53,31 17,14 32,30 46,48 29,40 46,74 50,99l-54 40c-1,-37 -16,-74 -44,-112 -7,-11 -16,-20 -26,-29 -10,-9 -21,-16 -32,-20 -11,-5 -22,-7 -34,-6 -11,0 -23,5 -34,13 -11,8 -18,16 -23,26 -5,10 -8,21 -8,33 -1,12 0,26 2,41 2,16 5,33 8,53 4,20 6,39 8,58 2,20 1,38 -1,55 -3,17 -8,33 -15,47 -8,15 -19,28 -35,39 -20,15 -40,24 -60,26 -20,3 -39,0 -58,-7 -19,-7 -37,-18 -53,-32 -17,-15 -33,-32 -47,-52 -5,-6 -10,-15 -16,-25 -6,-10 -12,-21 -17,-33 -6,-11 -10,-22 -14,-33 -3,-11 -5,-21 -5,-29zm355 505c-47,-55 -67,-115 -59,-179 8,-64 41,-121 99,-171 63,-54 127,-79 193,-78 66,2 124,32 174,91 46,53 65,112 57,175 -8,64 -42,121 -100,171 -63,54 -128,80 -194,78 -65,-2 -122,-31 -170,-87zm363 -306c-35,-40 -78,-61 -129,-61 -51,0 -101,20 -149,61 -48,41 -76,86 -84,136 -7,50 6,95 40,135 36,42 79,64 128,65 48,0 98,-21 148,-64 51,-43 81,-89 88,-137 8,-48 -6,-93 -42,-135zm60 745l-186 -188 363 -360 43 43 -326 321 145 146 -39 38zm478 149c-95,108 -191,119 -288,33 -94,-81 -95,-174 -4,-278l206 -235 45 39 -203 232c-69,79 -71,148 -4,206 64,56 130,46 196,-30l207 -236 45 40 -200 229zm235 418c-42,-7 -86,-28 -131,-62 -58,-44 -90,-97 -97,-161 -6,-64 13,-126 59,-187 50,-65 109,-103 179,-113 69,-11 134,7 195,52 38,29 66,59 83,90l-38 50c-17,-38 -43,-71 -79,-97 -46,-36 -96,-49 -149,-39 -53,9 -99,40 -138,92 -38,50 -54,100 -49,150 4,50 29,92 73,125 41,31 83,49 127,53l-35 47zm453 -272l-28 43 -41 -27 -223 343 42 27 -28 43 -134 -87 28 -43 42 28 222 -344 -41 -27 27 -43 134 87zm-39 589c-60,-39 -96,-91 -107,-155 -10,-64 5,-128 47,-192 45,-69 99,-112 163,-129 64,-17 128,-4 192,37 59,39 94,89 104,153 11,63 -5,127 -47,192 -45,70 -100,113 -163,130 -64,16 -126,5 -189,-36zm262 -396c-45,-29 -92,-36 -141,-22 -49,14 -91,48 -125,101 -35,53 -49,104 -42,154 6,50 32,89 76,118 47,30 94,39 141,26 47,-13 88,-47 124,-103 37,-56 52,-109 46,-157 -6,-48 -33,-87 -79,-117zm416 740l-67 -31 -69 -480c-2,-12 -2,-24 -1,-36l-2 -1c-3,11 -12,33 -27,65l-154 336 -55 -25 214 -465 70 33 65 471c3,19 5,33 5,39l1 1c4,-14 14,-38 28,-70l151 -327 54 25 -213 465zm371 157l-253 -95 179 -479 243 91 -19 51 -187 -70 -59 159 173 65 -19 51 -173 -65 -63 167 197 74 -19 51zm71 12l20 -68c6,10 13,18 22,27 9,9 19,17 30,24 11,7 22,14 34,20 11,5 22,9 32,12 36,11 64,12 85,4 21,-8 36,-24 43,-49 4,-13 4,-25 1,-37 -2,-11 -8,-23 -16,-34 -7,-11 -17,-22 -29,-34 -12,-11 -25,-23 -38,-36 -15,-14 -28,-28 -40,-41 -13,-13 -23,-27 -30,-41 -8,-14 -13,-28 -15,-44 -3,-15 -1,-32 4,-50 7,-23 18,-41 32,-54 15,-14 32,-24 51,-30 19,-6 40,-8 62,-8 22,1 43,5 64,11 49,14 82,31 101,49l-19 64c-23,-28 -57,-49 -103,-63 -12,-4 -25,-6 -38,-7 -14,-1 -26,0 -38,3 -11,3 -22,8 -30,16 -9,7 -16,18 -20,31 -4,13 -4,24 -2,35 2,10 6,21 13,31 7,10 16,21 27,32 11,11 23,23 38,36 15,14 29,28 42,43 13,14 23,28 32,44 8,15 14,30 16,46 3,17 2,34 -4,52 -7,24 -17,43 -32,57 -14,14 -31,24 -50,30 -19,6 -40,8 -62,6 -23,-1 -46,-5 -69,-12 -8,-3 -17,-6 -28,-11 -11,-4 -22,-10 -33,-16 -11,-5 -22,-12 -31,-18 -10,-7 -17,-13 -22,-20zm583 192l110 -499 138 30c176,39 246,140 210,302 -17,77 -55,133 -114,169 -59,36 -130,45 -212,27l-132 -29zm157 -433l-87 393 75 17c65,14 120,8 164,-19 44,-27 73,-73 87,-137 29,-128 -25,-207 -161,-237l-78 -17zm547 575c-72,-11 -126,-43 -162,-97 -36,-53 -48,-118 -37,-194 12,-81 44,-143 95,-185 51,-42 115,-57 190,-46 70,11 123,43 158,96 36,54 48,118 37,194 -12,83 -44,145 -95,186 -51,42 -113,57 -186,46zm74 -469c-53,-8 -99,5 -138,38 -39,34 -63,82 -72,144 -9,62 -1,115 26,158 27,43 66,68 118,76 55,8 102,-4 139,-35 37,-32 61,-80 71,-145 10,-67 2,-121 -24,-162 -25,-41 -65,-66 -120,-74zm790 505l-60 -1 4 -343c0,-27 3,-60 7,-99l-2 0c-6,23 -11,39 -16,49l-179 391 -29 -1 -170 -392c-5,-11 -10,-29 -15,-52l-1 0c1,20 2,54 1,100l-4 342 -58 -1 7 -511 79 1 152 359c12,27 20,47 23,61l2 0c11,-28 19,-49 25,-62l165 -353 75 1 -6 511zm408 -19l-270 15 -28 -510 259 -14 2 54 -199 10 10 170 184 -10 3 54 -184 10 9 179 211 -12 3 54zm-89 -671l-86 122 -46 3 73 -121 59 -4zm160 650l-9 -70c9,6 19,11 31,16 12,4 25,7 37,10 13,2 26,4 39,4 13,1 24,1 35,-1 36,-4 63,-14 79,-30 17,-16 23,-36 20,-62 -1,-13 -6,-25 -13,-34 -7,-10 -17,-18 -28,-25 -12,-7 -26,-14 -41,-20 -15,-6 -32,-12 -50,-18 -19,-7 -36,-14 -53,-22 -16,-7 -31,-15 -43,-25 -13,-10 -23,-21 -32,-35 -8,-13 -13,-29 -15,-48 -3,-23 0,-44 8,-62 8,-18 19,-34 35,-47 15,-13 33,-24 53,-32 20,-8 42,-13 64,-16 50,-6 87,-4 111,5l8 67c-32,-17 -72,-23 -119,-17 -13,1 -26,4 -38,8 -13,5 -24,10 -33,18 -10,7 -17,16 -22,27 -5,10 -7,22 -5,36 1,13 5,24 11,33 6,9 14,17 24,23 11,7 23,13 38,19 14,5 31,12 49,18 20,7 38,14 55,22 18,8 33,17 47,28 14,11 25,23 34,36 9,14 15,31 17,50 3,25 1,46 -7,65 -8,18 -19,34 -34,47 -16,13 -34,23 -55,30 -21,8 -44,13 -68,16 -8,1 -18,2 -30,2 -12,0 -24,-1 -37,-2 -12,-1 -24,-2 -35,-5 -12,-2 -21,-5 -28,-9zm625 -536l-145 27 85 449 -59 11 -85 -449 -145 27 -10 -53 349 -66 10 54zm173 -88l9 50 -49 10 76 402 49 -10 9 51 -156 29 -10 -50 49 -9 -76 -402 -48 9 -10 -50 157 -30zm506 370c-31,29 -74,50 -129,64 -70,18 -132,10 -186,-25 -54,-34 -91,-88 -110,-162 -20,-79 -12,-149 23,-211 35,-61 89,-101 162,-119 47,-12 88,-15 122,-10l16 62c-41,-11 -82,-11 -125,0 -57,15 -98,46 -124,93 -25,47 -30,102 -14,166 16,60 45,104 87,131 42,28 90,34 144,21 49,-13 89,-35 120,-67l14 57zm486 -138l-63 21 -96 -120 -207 68 -4 152 -63 20 28 -546 59 -20 346 425zm-194 -144l-144 -182c-5,-6 -11,-16 -19,-30l-1 1c2,14 3,26 2,35l-8 231 170 -55zm226 101l-26 -66c10,3 21,6 34,7 12,1 25,1 38,0 13,-1 26,-3 39,-5 12,-3 23,-6 33,-10 34,-14 57,-31 69,-50 12,-19 13,-41 4,-65 -6,-13 -13,-23 -22,-30 -10,-7 -21,-13 -34,-16 -13,-4 -28,-7 -44,-9 -17,-2 -34,-3 -53,-5 -20,-2 -39,-4 -56,-7 -18,-3 -34,-8 -49,-14 -15,-6 -28,-14 -39,-25 -12,-11 -21,-25 -28,-43 -8,-21 -11,-42 -8,-62 3,-20 10,-38 22,-54 11,-17 25,-32 43,-45 18,-13 37,-23 57,-31 47,-19 84,-27 110,-24l24 62c-35,-8 -75,-4 -119,14 -12,5 -24,11 -35,18 -11,8 -20,16 -28,26 -7,9 -11,20 -14,31 -2,12 -1,24 5,37 4,12 11,22 19,29 8,7 18,12 30,16 11,4 25,7 40,8 16,2 33,4 53,5 20,2 40,4 59,8 19,3 36,8 52,14 16,7 30,16 42,27 13,11 22,25 29,43 10,23 13,45 10,65 -2,20 -9,38 -21,54 -11,17 -26,31 -45,44 -18,12 -39,23 -61,32 -8,3 -17,6 -29,10 -11,3 -23,5 -36,8 -12,2 -24,3 -36,4 -11,1 -21,0 -29,-1z"/>
  <path class="fil1 str2" d="M14245 13821c-490,322 -1021,578 -1577,761 -3502,1153 -7276,-752 -8429,-4254 -1153,-3502 752,-7276 4254,-8429 3502,-1153 7276,752 8429,4254 28,87 -19,181 -106,209 -86,29 -180,-19 -209,-105 -1096,-3329 -4682,-5139 -8011,-4043 -3328,1096 -5138,4682 -4042,8011 1095,3328 4682,5138 8010,4042 529,-174 1034,-417 1499,-722 1,-1 3,-2 4,-3 181,-502 539,-916 977,-1200 431,-279 909,-475 1355,-728 447,-253 874,-579 1113,-1033 -392,389 -918,609 -1439,791 -521,181 -1059,338 -1525,633 -450,284 -833,728 -910,1251 -445,-1102 160,-2364 1244,-2996 1131,-659 2634,-578 3623,-1436 623,791 639,1577 446,2582 -239,974 -727,1860 -1676,2324 -835,360 -2122,566 -3011,76 -6,6 -12,11 -19,15z"/>
 </g>
</svg>
